<?xml version="1.0" encoding="UTF-8"?>
<svg id="Layer_1" data-name="Layer 1" xmlns="http://www.w3.org/2000/svg" viewBox="0 0 1463.27828 479.34665">
  <defs>
    <style>
      .cls-1 {
        fill: #ef9aef;
      }

      .cls-2 {
        fill: #922e34;
      }

      .cls-3 {
        fill: #aa3c47;
      }

      .cls-4 {
        fill: #d364f9;
      }

      .cls-5 {
        fill: #161616;
      }

      .cls-6 {
        stroke-linecap: round;
        stroke-linejoin: round;
        stroke-width: 4px;
      }

      .cls-6, .cls-7 {
        fill: #fff;
        stroke: #000;
      }

      .cls-7 {
        stroke-miterlimit: 10;
        stroke-width: .75px;
      }
    </style>
  </defs>
  <path class="cls-4" d="m1431.2468,39.87769c-17.18982-7.49805-84.63281-45.45093-257.03296-39.18182-172.40015,6.26904-263.302,21.94183-305.61841,42.31641-42.31647,20.37451-109.70911,28.76788-136.25494,30.33514s-50.25073,2.57758-147.42175-25.63336S396.84579,14.80134,320.04935,16.3686c-76.79639,1.56726-244.49475,4.70178-269.57117,20.37457-25.07635,15.67273-14.62787,12.53815-25.07635,15.67273C14.95334,55.55042-6.46609,179.69184,1.89267,182.92426c8.35883,3.23236,17.24005,19.94995,23.50916,40.32452s25.07635,120.68011,37.61456,137.92017c12.53821,17.23999,40.74915,83.06549,97.17102,95.6037s217.85114,36.0473,305.61847,12.53821c87.7674-23.50909,115.97827-56.42188,122.24738-65.8255,6.2691-9.40369,65.82556-108.14197,81.49829-159.862s39.18182-72.0946,39.18182-72.0946c0,0,25.07642-23.50916,61.12372-1.56732,36.0473,21.94189,86.20001,191.20752,137.92023,228.82208,51.71997,37.61456,95.60364,64.25824,217.85107,59.5564,122.24731-4.70178,222.55298-12.53815,268.00391-65.8255s56.42188-217.85114,56.42188-217.85114c0,0,1.56726-5.48547,10.97095-17.23999,9.40356-11.75458-12.58838-110.04755-29.77832-117.54559Zm-871.67664,332.86475c-27.24469,24.3465-235.58612,64.92407-317.32007,58.43164-81.73401-6.49237-91.42981-29.95123-121.79968-55.18549-30.36981-25.23419-53.95508-194.77222-43.27087-217.05597,10.68414-22.28369,6.41046-29.65552,46.47614-58.87134,40.06567-29.21588,201.93097-35.70825,341.3595-24.34656s155.45477,61.67786,158.66003,121.73267c3.20526,60.05475-36.86041,150.94849-64.10504,175.29504Zm172.77032-248.17078c-9.5755,0-17.33801-7.76245-17.33801-17.33795s7.76251-17.33801,17.33801-17.33801,17.33801,7.76245,17.33801,17.33801-7.76251,17.33795-17.33801,17.33795Zm648.7536,170.73395c-2.54126,39.66724-22.31909,67.41028-39.18188,76.79645-23.87939,13.29169-237.58057,54.15302-318.15662,23.50909-80.14282-30.47919-95.60376-48.58551-106.57471-61.12366-10.97095-12.53821-62.69098-111.27649-59.5564-153.5929,3.13452-42.31641,14.10547-70.52734,26.64355-78.36371,12.53833-7.83636,112.84375-51.72003,228.82214-48.58551,115.97827,3.13452,247.62927-15.67273,268.00391,86.20007,4.00757,20.03796,2.505,116.05847,0,155.16016Z"/>
  <path class="cls-1" d="m77.17951,158.93267c-10.68418,22.28371,12.9011,191.82172,43.27092,217.05597,30.36982,25.23425,40.06567,48.69306,121.79963,55.18547s290.07544-34.08514,317.32009-58.43168,67.31032-115.24025,64.10507-175.29503c-3.20525-60.05478-19.23152-110.37094-158.66004-121.73266-139.42852-11.36171-301.29382-4.86931-341.35949,24.34653s-35.792,36.58768-46.47617,58.87139Z"/>
  <path class="cls-7" d="m1370.29555,223.55625s-182.01045,83.9885-255.40176,87.05973c-73.39131,3.07123-221.15248-66.31881-219.19538-72.06162s116.44754-136.78185,201.58146-127.56817,273.01567,112.57006,273.01567,112.57006Z"/>
  <path class="cls-6" d="m900.95813,176.27118c9.41855,10.70648,18.8371,21.96765,18.8371,21.96765"/>
  <path class="cls-6" d="m946.71173,136.34522c1.9571,5.11871,11.74261,15.35614,9.78551,18.42736"/>
  <path class="cls-6" d="m998.44625,107.68044c1.9571,6.14245,2.93565,14.33239,0,16.37988"/>
  <path class="cls-6" d="m1031.71698,89.76755c4.89275,6.14245,7.82841,8.18994,6.84986,16.37988"/>
  <path class="cls-6" d="m1138.56819,87.16016c.97855,14.33239,0,25.12972,0,25.12972"/>
  <path class="cls-6" d="m1085.53727,83.6251c6.84986,5.11871,12.72116,8.18994,9.78551,14.33239"/>
  <path class="cls-6" d="m1263.63352,115.87038c-1.9571,9.21368-6.84986,22.52233-9.78551,24.56982"/>
  <path class="cls-6" d="m1308.64685,136.34522c0,11.26117-10.76406,24.65545-13.69971,26.14825"/>
  <path class="cls-6" d="m1201.98482,103.19067c2.93565,9.95747-.97855,26.33735-4.89275,25.31361"/>
  <path class="cls-6" d="m1364.42425,178.5532c-4.89275,5.11871-11.74261,10.23742-15.65681,17.40362"/>
  <path class="cls-6" d="m1356.59584,255.33388s16.63536,24.56982,20.54957,24.56982"/>
  <path class="cls-6" d="m1308.64685,274.78499c4.89275,4.09497,3.9142,10.23742,6.84986,14.33239"/>
  <path class="cls-6" d="m1194.02636,315.08987c5.8713,9.21368,13.69971,11.26117,11.74261,16.37988"/>
  <path class="cls-6" d="m1250.42308,288.29098c0,3.99601,16.63536,22.42337,16.63536,22.42337"/>
  <path class="cls-6" d="m1152.1042,319.497c-1.9571,6.09297-5.8713,11.21169,0,18.37788"/>
  <path class="cls-6" d="m1105.10829,321.92663c-.97855,8.14046,4.89275,23.49659,0,26.56782"/>
  <path class="cls-6" d="m1075.5524,321.51227c-1.9571,11.26117-14.30328,22.52233-10.57657,23.54608"/>
  <path class="cls-6" d="m1041.10696,321.56952c-2.93565-.09896-7.82841,12.18595-11.74261,14.23343"/>
  <path class="cls-6" d="m1002.59641,306.97678c-6.84986,10.23742-14.67826,23.54608-18.59247,21.49859"/>
  <path class="cls-6" d="m954.24387,289.62926s0,7.1662-5.02142,14.33239"/>
  <path class="cls-6" d="m910.37668,265.05944c-5.8713,6.14245-18.59247,16.37988-19.57102,19.45111"/>
  <path class="cls-6" d="m886.89146,230.76406c-13.69971-10.19581-14.67826-22.48072-19.57102-27.59943"/>
  <ellipse class="cls-2" cx="1125.85086" cy="203.16463" rx="89.5374" ry="82.01666"/>
  <ellipse class="cls-3" cx="1138.19554" cy="212.16607" rx="89.5374" ry="82.01666"/>
  <ellipse class="cls-5" cx="1130.14288" cy="201.81801" rx="11.98725" ry="10.34806"/>
</svg>