<?xml version="1.0" encoding="UTF-8"?>
<svg id="Layer_1" data-name="Layer 1" xmlns="http://www.w3.org/2000/svg" viewBox="0 0 1463.27828 479.34665">
  <defs>
    <style>
      .cls-1 {
        fill: #ef9aef;
      }

      .cls-2, .cls-3, .cls-4 {
        fill: #fff;
      }

      .cls-5 {
        fill: #922e34;
      }

      .cls-6 {
        fill: #aa3c47;
      }

      .cls-7 {
        fill: #d364f9;
      }

      .cls-8 {
        fill: #161616;
      }

      .cls-3, .cls-9 {
        stroke: #fff;
        stroke-width: 4px;
      }

      .cls-3, .cls-9, .cls-4 {
        stroke-miterlimit: 10;
      }

      .cls-4 {
        stroke: #000;
        stroke-width: .75px;
      }
    </style>
  </defs>
  <path class="cls-7" d="m1431.2468,39.87769c-17.18982-7.49805-84.63281-45.45093-257.03296-39.18182-172.40015,6.26904-263.302,21.94183-305.61841,42.31641-42.31647,20.37451-109.70911,28.76788-136.25494,30.33514s-50.25073,2.57758-147.42175-25.63336S396.84579,14.80134,320.04935,16.3686c-76.79639,1.56726-244.49475,4.70178-269.57117,20.37457-25.07635,15.67273-14.62787,12.53815-25.07635,15.67273C14.95334,55.55042-6.46609,179.69184,1.89267,182.92426c8.35883,3.23236,17.24005,19.94995,23.50916,40.32452s25.07635,120.68011,37.61456,137.92017c12.53821,17.23999,40.74915,83.06549,97.17102,95.6037s217.85114,36.0473,305.61847,12.53821c87.7674-23.50909,115.97827-56.42188,122.24738-65.8255,6.2691-9.40369,65.82556-108.14197,81.49829-159.862s39.18182-72.0946,39.18182-72.0946c0,0,25.07642-23.50916,61.12372-1.56732,36.0473,21.94189,86.20001,191.20752,137.92023,228.82208,51.71997,37.61456,95.60364,64.25824,217.85107,59.5564,122.24731-4.70178,222.55298-12.53815,268.00391-65.8255s56.42188-217.85114,56.42188-217.85114c0,0,1.56726-5.48547,10.97095-17.23999,9.40356-11.75458-12.58838-110.04755-29.77832-117.54559Zm-871.67664,332.86475c-27.24469,24.3465-235.58612,64.92407-317.32007,58.43164-81.73401-6.49237-91.42981-29.95123-121.79968-55.18549-30.36981-25.23419-53.95508-194.77222-43.27087-217.05597,10.68414-22.28369,6.41046-29.65552,46.47614-58.87134,40.06567-29.21588,201.93097-35.70825,341.3595-24.34656s155.45477,61.67786,158.66003,121.73267c3.20526,60.05475-36.86041,150.94849-64.10504,175.29504Zm172.77032-248.17078c-9.5755,0-17.33801-7.76245-17.33801-17.33795s7.76251-17.33801,17.33801-17.33801,17.33801,7.76245,17.33801,17.33801-7.76251,17.33795-17.33801,17.33795Zm648.7536,170.73395c-2.54126,39.66724-22.31909,67.41028-39.18188,76.79645-23.87939,13.29169-237.58057,54.15302-318.15662,23.50909-80.14282-30.47919-95.60376-48.58551-106.57471-61.12366-10.97095-12.53821-62.69098-111.27649-59.5564-153.5929,3.13452-42.31641,14.10547-70.52734,26.64355-78.36371,12.53833-7.83636,112.84375-51.72003,228.82214-48.58551,115.97827,3.13452,247.62927-15.67273,268.00391,86.20007,4.00757,20.03796,2.505,116.05847,0,155.16016Z"/>
  <path class="cls-1" d="m77.17951,158.93267c-10.68418,22.28371,12.9011,191.82172,43.27092,217.05597,30.36982,25.23425,40.06567,48.69306,121.79963,55.18547s290.07544-34.08514,317.32009-58.43168c27.24465-24.34653,67.31032-115.24025,64.10507-175.29503-3.20525-60.05478-19.23152-110.37094-158.66004-121.73266-139.42852-11.36171-301.29382-4.86931-341.35949,24.34653s-35.792,36.58768-46.47617,58.87139Z"/>
  <path class="cls-4" d="m1370.29555,223.55625s-182.01045,83.9885-255.40176,87.05973c-73.39131,3.07123-221.15248-66.31881-219.19538-72.06162,1.9571-5.74281,116.44754-136.78185,201.58146-127.56817,85.13392,9.21368,273.01567,112.57006,273.01567,112.57006Z"/>
  <g>
    <path class="cls-3" d="m900.95813,176.27118c9.41855,10.70648,18.8371,21.96765,18.8371,21.96765"/>
    <g>
      <path d="m919.79636,202.23871c-1.18848,0-2.30664-.52246-3.06934-1.43359-.0918-.10938-9.46582-11.3125-18.77246-21.89258-1.45605-1.65479-1.29395-4.1875.36133-5.64453.73145-.64355,1.66895-.99707,2.6416-.99707,1.15137,0,2.24609.49512,3.00488,1.35889,8.5791,9.75293,17.21191,20.02783,18.85547,21.98779,1.46094,1.74707,1.23535,4.27441-.45605,5.68945-.7168.60059-1.62793.93164-2.56543.93164Z"/>
      <path class="cls-2" d="m900.95749,174.27076c.55554-.00006,1.10791.22986,1.50293.67938,9.32617,10.60303,18.77441,21.89307,18.86914,22.00537.70898.84766.59668,2.1084-.25098,2.81738-.37402.31348-.8291.46582-1.28223.46582-.57227,0-1.13965-.24414-1.53516-.7168-.09375-.1123-9.51172-11.36523-18.80469-21.93018-.72949-.8291-.64844-2.09277.18066-2.82275.38-.3342.85132-.4982,1.32031-.49823m.00024-4h-.00024c-1.45898.00009-2.86597.53082-3.96179,1.49451-2.4845,2.18738-2.72693,5.98575-.54224,8.46875,9.20532,10.46533,18.64612,21.74237,18.7373,21.85153,1.146,1.36957,2.82373,2.15317,4.60559,2.15317,1.40649,0,2.77429-.49725,3.85156-1.40018,1.22644-1.02576,1.98193-2.47119,2.12415-4.06741s-.34595-3.1524-1.37427-4.38193l-.04675-.05573c-1.64587-1.96338-10.2915-12.25262-18.88708-22.02512-1.13733-1.29437-2.78027-2.0376-4.50623-2.0376h0Z"/>
    </g>
  </g>
  <g>
    <path class="cls-3" d="m946.71173,136.34522c1.9571,5.11871,11.74261,15.35614,9.78551,18.42736"/>
    <g>
      <path d="m956.49558,158.77289c-.76172,0-1.50488-.21729-2.14844-.62793-1.57031-1.00049-2.21387-2.91797-1.65039-4.62207-.54102-1.56445-3.56836-5.87451-4.60547-7.35059-2.15039-3.06201-4.18164-5.9541-5.11621-8.39844-.38184-.99805-.35156-2.08496.08398-3.06055.43652-.97559,1.22656-1.72314,2.22461-2.10449.45801-.17529.9375-.26367,1.42676-.26367,1.64746,0,3.14941,1.0332,3.7373,2.57129.58008,1.51758,2.49805,4.24854,4.19043,6.65771,4.39746,6.26221,7.87109,11.20752,5.23242,15.34766-.73633,1.15771-1.99805,1.8501-3.37305,1.85107h-.00195Z"/>
      <path class="cls-2" d="m946.70993,134.34495c.80469-.00006,1.56494.48895,1.86963,1.28586.66797,1.74854,2.57617,4.46533,4.42188,7.09277,3.96777,5.6499,7.10156,10.11182,5.18262,13.12354-.38086.59863-1.02832.92529-1.68848.92578-.36816,0-.74023-.10156-1.07324-.31396-.90234-.5752-1.1875-1.75391-.66406-2.67383.14355-1.39648-3.21582-6.1792-5.03027-8.76221-2.07715-2.95752-4.03906-5.75098-4.88477-7.96338-.39453-1.03174.12207-2.18799,1.1543-2.58252.23425-.08957.47534-.13205.7124-.13205m.00012-4.00003h-.00024c-.73364.00006-1.45398.13324-2.14087.39587-1.49683.57211-2.68152,1.69318-3.33545,3.15646-.65405,1.46338-.69897,3.09381-.12646,4.59097,1.02307,2.67612,3.12366,5.66705,5.34766,8.83362.86829,1.23611,3.30249,4.70148,4.13562,6.38565-.42175,2.3324.57288,4.78003,2.68188,6.12442.96484.61539,2.07983.94098,3.22339.94098,2.06567-.00153,3.9574-1.04028,5.06335-2.77866,3.35583-5.26678-.64758-10.96744-5.2832-17.56821-1.54614-2.20102-3.46887-4.93811-3.95947-6.22266-.88281-2.30835-3.1355-3.85846-5.6062-3.85846h0Z"/>
    </g>
  </g>
  <g>
    <path class="cls-3" d="m998.44625,107.68044c1.9571,6.14245,2.93565,14.33239,0,16.37988"/>
    <g>
      <path d="m998.44772,128.06049c-1.30859,0-2.53613-.64014-3.2832-1.7124-.61133-.87646-.84473-1.93848-.65625-2.99023.17578-.9834.69922-1.84814,1.4834-2.45605.44922-.97021.67773-5.62305-1.35645-12.00635-.3252-1.01709-.23438-2.10059.25684-3.05029.49023-.94922,1.32031-1.65088,2.33789-1.97559.39355-.12549.80176-.18945,1.21387-.18945,1.75098,0,3.2832,1.12012,3.81348,2.78711,4.79785,15.0376.04688,19.7793-1.52441,20.87451-.67285.47021-1.46387.71875-2.28516.71875Z"/>
      <path class="cls-2" d="m998.44382,105.6803c.84595-.00003,1.63647.54126,1.90723,1.39288.4834,1.51514,4.56641,14.9126-.76172,18.62793-.34766.24268-.74707.35938-1.1416.35938-.63184,0-1.25391-.29834-1.64258-.85596-.63184-.90625-.40918-2.15283.49707-2.78467,1.44531-1.0083,1.42676-7.26611-.76172-14.13184-.33594-1.05225.24512-2.17725,1.29785-2.51318.20081-.06406.40466-.09454.60547-.09454m.00012-4h-.00024c-.61829.00003-1.23096.09552-1.82104.28378-1.5271.48727-2.77271,1.53964-3.50793,2.96329-.73572,1.42441-.87231,3.04996-.38477,4.57721,1.55127,4.86652,1.73181,8.85544,1.48718,10.29724-.87256.8627-1.45776,1.97122-1.67798,3.20444-.28174,1.57794.06799,3.17105.98474,4.48596,1.12085,1.60803,2.96167,2.56827,4.92383,2.56827,1.23303,0,2.41943-.37326,3.43115-1.07941,3.5166-2.45215,4.94678-7.10614,4.24927-13.83163-.44604-4.30133-1.6178-8.19974-1.96631-9.29208-.7937-2.49683-3.09216-4.17706-5.7179-4.17706h0Z"/>
    </g>
  </g>
  <g>
    <path class="cls-3" d="m1031.71698,89.76755c4.89275,6.14245,7.82841,8.18994,6.84986,16.37988"/>
    <g>
      <path d="m1038.56979,110.14741c-.16016,0-.31738-.00879-.47949-.02832-2.1875-.26123-3.75684-2.25586-3.49609-4.4458.64062-5.35938-.54199-6.78662-4.05371-11.02344-.61328-.74121-1.26465-1.52637-1.95215-2.39014-.66602-.83594-.96582-1.88086-.8457-2.94238.12012-1.06201.64648-2.01318,1.48242-2.6792.70703-.56104,1.59082-.86963,2.49121-.86963,1.22656,0,2.36816.54932,3.12988,1.50732.65234.81934,1.26953,1.56348,1.8457,2.25879,3.85547,4.65332,6.89453,8.31982,5.84766,17.0874-.24219,2.01025-1.94824,3.52539-3.96973,3.52539Z"/>
      <path class="cls-2" d="m1031.7164,87.76838c.58826-.00006,1.1709.25748,1.56531.75305.66406.83447,1.29199,1.5918,1.87891,2.2998,3.81641,4.60547,6.33789,7.64795,5.39258,15.56348-.12207,1.01611-.98535,1.7627-1.9834,1.7627-.08008,0-.15918-.00439-.24023-.01416-1.09668-.13086-1.87988-1.12646-1.74902-2.22314.74219-6.21045-.90039-8.19336-4.5-12.53662-.60156-.72607-1.24609-1.50391-1.92773-2.35986-.68848-.86426-.5459-2.12256.31836-2.81055.36804-.29245.80823-.43466,1.24524-.43469m.00012-4h-.00037c-1.35034.00009-2.67627.46289-3.73364,1.30313-1.25684,1.00049-2.047,2.42758-2.22742,4.02048-.18042,1.59259.27026,3.16016,1.26904,4.41394.69641.87448,1.35522,1.66998,1.97046,2.41251,3.43848,4.1489,4.15271,5.01071,3.61426,9.517-.39221,3.28598,1.96155,6.27765,5.24683,6.66965.23169.02789.47351.04233.71411.04233,3.03284,0,5.5929-2.27231,5.95483-5.28561,1.14917-9.62265-2.29529-13.7793-6.28357-18.59225-.5791-.69855-1.18701-1.43152-1.82947-2.23883-1.14441-1.43784-2.85559-2.26233-4.69507-2.26233h0Z"/>
    </g>
  </g>
  <g>
    <path class="cls-3" d="m1138.56819,87.16016c.97855,14.33239,0,25.12972,0,25.12972"/>
    <g>
      <path d="m1138.56979,116.28998c-.11719,0-.23926-.00537-.3584-.01611-2.19922-.19922-3.82422-2.14697-3.62793-4.34277.00977-.10742.93555-10.70312-.00586-24.49854-.15039-2.2002,1.51758-4.11279,3.71777-4.2627.08594-.00684.18848-.01074.28906-.01074,2.08594,0,3.83105,1.6377,3.97363,3.72852.98438,14.40723.03516,25.30469-.00586,25.76123-.18945,2.07715-1.90137,3.64111-3.98242,3.64111Z"/>
      <path class="cls-2" d="m1138.58432,85.15912c1.04126,0,1.90698.81381,1.97864,1.86475.97852,14.32617.03711,24.99951-.00293,25.44678-.09473,1.03857-.9668,1.81934-1.99023,1.81934-.05957,0-.12109-.00293-.18164-.0083-1.10059-.09961-1.91113-1.07178-1.8125-2.17188.00977-.10645.95215-10.82422-.00293-24.81348-.0752-1.10205.75684-2.05615,1.8584-2.13135.05139-.00391.10254-.00586.1532-.00586m0-3.99997c-.15125,0-.30383.00571-.45728.0174-3.26855.22302-5.77026,3.09152-5.54504,6.39209.92749,13.58521.01904,24.07797.00977,24.18237-.29541,3.29477,2.14319,6.21637,5.43579,6.5144.18604.01645.36694.02457.54224.02457,3.12183,0,5.68994-2.34555,5.97375-5.45599.10449-1.16797.98804-11.76569.01013-26.0827-.21399-3.13562-2.83594-5.59213-5.96936-5.59213h0Z"/>
    </g>
  </g>
  <g>
    <path class="cls-3" d="m1085.53727,83.6251c6.84986,5.11871,12.72116,8.18994,9.78551,14.33239"/>
    <g>
      <path d="m1095.32175,101.95795c-.59961,0-1.17969-.13135-1.72266-.39062-.96484-.46143-1.69238-1.27002-2.04785-2.27734-.35645-1.00781-.29883-2.09326.16211-3.05762.85938-1.79883.80566-2.60352-6.02539-7.54199-.82227-.59473-1.67578-1.21191-2.54492-1.86133-.85547-.63965-1.41113-1.57373-1.56445-2.63135s.11523-2.11133.75391-2.96729c.75391-1.00586,1.95215-1.60547,3.20703-1.60547.86816,0,1.69531.2749,2.39258.79541.7998.59814,1.58691,1.16748,2.3457,1.7168l.09766.07031c5.89062,4.25879,12.56543,9.08545,8.55664,17.47461-.66211,1.38281-2.0791,2.27588-3.61035,2.27588Z"/>
      <path class="cls-2" d="m1085.53952,81.62494c.41614,0,.83582.12946,1.19531.39795.84277.62988,1.6709,1.22803,2.46875,1.80518,5.7666,4.16943,11.21387,8.10742,7.92383,14.9917-.34375.71826-1.05957,1.13818-1.80566,1.13818-.29004,0-.58301-.06299-.86133-.1958-.99707-.47656-1.41895-1.67041-.94238-2.66699,1.69922-3.55615-.35449-5.46826-6.6582-10.02539-.81445-.58887-1.65918-1.19971-2.51953-1.84277-.88477-.66113-1.06641-1.91455-.40527-2.79932.39343-.52512.99512-.8027,1.60449-.80273m.00012-4h-.00012c-1.88135.00009-3.67786.89893-4.80579,2.40442-1.98328,2.65417-1.43811,6.42142,1.21216,8.40186.87744.65582,1.73926,1.27921,2.57031,1.88004,1.51392,1.09451,4.99744,3.61279,5.55347,4.65927-.02271.07715-.06885.20767-.16077.40009-.69116,1.44522-.77783,3.07419-.24377,4.58572.53394,1.51089,1.62427,2.7236,3.07031,3.41476.81677.38977,1.68616.58685,2.5863.58685,2.29688,0,4.422-1.33905,5.4137-3.41141,4.72986-9.89682-3.31384-15.71268-9.18713-19.9592l-.09814-.07101c-.75134-.54346-1.52942-1.10611-2.32068-1.69745-1.04602-.78131-2.28699-1.19394-3.58984-1.19394h0Z"/>
    </g>
  </g>
  <g>
    <path class="cls-3" d="m1263.63352,115.87038c-1.9571,9.21368-6.84986,22.52233-9.78551,24.56982"/>
    <g>
      <path d="m1253.85007,144.44037c-1.30664,0-2.5332-.63916-3.28223-1.71045-1.26172-1.80957-.81738-4.30762.99121-5.56982,1.41211-1.22168,6.01562-12.01855,8.16211-22.12061.3877-1.83594,2.03223-3.16992,3.90918-3.16992.2793,0,.55957.02979.83398.08789,2.15723.4585,3.54004,2.58643,3.08105,4.74414-1.26855,5.97412-6.3291,23.47559-11.4082,27.01904-.6748.4707-1.46582.71973-2.28711.71973Z"/>
      <path class="cls-2" d="m1263.63022,113.86982c.13818-.00003.27832.01431.41907.04419,1.08008.22949,1.76953,1.2915,1.54004,2.37207-1.64648,7.75342-6.59668,23.00391-10.59668,25.79443-.34863.24316-.74805.35986-1.14258.35986-.63184,0-1.25293-.29834-1.64258-.85596-.63184-.90576-.40918-2.15234.49609-2.78418,2.01465-1.40527,6.81934-13.2041,8.97363-23.34521.19885-.94028,1.0271-1.58514,1.953-1.58521m.00024-4h-.00024c-2.81628.00015-5.28357,2.00104-5.86646,4.75766-1.99182,9.37646-6.09888,19.23495-7.58228,21.0636-2.51672,1.94138-3.09131,5.54889-1.25464,8.18185,1.12402,1.60864,2.96387,2.56744,4.92322,2.56744,1.23242,0,2.41882-.37314,3.43091-1.07907,6.87634-4.79715,12.172-28.01285,12.22107-28.24432.68726-3.23605-1.38586-6.42816-4.62146-7.11563-.41174-.08737-.83203-.13153-1.25012-.13153h0Z"/>
    </g>
  </g>
  <g>
    <path class="cls-3" d="m1308.64685,136.34522c0,11.26117-10.76406,24.65545-13.69971,26.14825"/>
    <g>
      <path d="m1294.9487,166.49409c-1.51367,0-2.87988-.8374-3.56738-2.18604-.99902-1.96826-.21289-4.38086,1.75293-5.37988,1.95898-1.18604,11.5127-13.23682,11.5127-22.58301,0-2.20557,1.79395-4,4-4s4,1.79443,4,4c0,12.8999-11.92676,27.70068-15.8877,29.71387-.55957.28467-1.18555.43506-1.81055.43506Z"/>
      <path class="cls-2" d="m1308.64694,134.34516c1.10449,0,2,.89551,2,2,0,11.94043-11.21777,26.11328-14.79395,27.93115-.29004.14746-.59961.21777-.9043.21777-.72949,0-1.43164-.3999-1.78516-1.09375-.5-.98486-.10742-2.18896.87695-2.68945,2.0957-1.06592,12.60645-13.84619,12.60645-24.36572,0-1.10449.89551-2,2-2m0-4c-3.30847,0-6,2.69159-6,6,0,8.45724-8.73047,19.42404-10.60083,20.89627-2.81372,1.55234-3.91528,5.08206-2.44922,7.96967,1.03271,2.02698,3.0824,3.28299,5.35181,3.28299.93835,0,1.87793-.22549,2.71704-.6521,5.06494-2.57465,16.9812-18.28745,16.9812-31.49683,0-3.30841-2.69165-6-6-6h0Z"/>
    </g>
  </g>
  <g>
    <path class="cls-3" d="m1201.98482,103.19067c2.93565,9.95747-.97855,26.33735-4.89275,25.31361"/>
    <g>
      <path d="m1197.44382,132.54877c-.46094,0-.91895-.05859-1.3623-.17432-1.03516-.27051-1.90234-.92773-2.44141-1.84961-.54004-.92236-.68848-2-.41699-3.03418.40527-1.5542,1.69824-2.69531,3.25195-2.93848,1.33691-2.18604,3.97461-12.42334,1.67383-20.23047-.30273-1.02441-.1875-2.10596.32324-3.04395.51074-.93848,1.35645-1.62158,2.38184-1.92383.36816-.1084.74805-.16357,1.13086-.16357,1.7627,0,3.33984,1.18066,3.83691,2.87158,2.40332,8.15088.87695,23.44238-4.03809,28.51074-1.58203,1.6333-3.2334,1.97607-4.33984,1.97607Z"/>
      <path class="cls-2" d="m1201.98459,101.1905c.86328-.00006,1.66211.5632,1.91821,1.43494,2.21191,7.50195.85938,22.00342-3.55469,26.55518-1.05762,1.09131-2.10938,1.36816-2.9043,1.36816-.33887,0-.63086-.05029-.85742-.10938-1.06934-.27979-1.70898-1.37256-1.42871-2.44141.23462-.89993,1.05017-1.49368,1.93774-1.49368.08765,0,.1759.00577.2644.01761,2.08887-1.40234,5.30762-13.94385,2.70703-22.76562-.3125-1.05957.29297-2.17139,1.35254-2.48389.18811-.05548.3783-.08191.56519-.08191m.00012-4.00003h-.00024c-.57385.00006-1.14453.08255-1.69629.24524-3.17358.93597-4.99377,4.27896-4.05798,7.45209,1.8573,6.30017.10962,15.00427-1.18079,17.97528-1.81714.65897-3.25366,2.17502-3.76233,4.12567-.4054,1.54587-.18335,3.16232.62659,4.54626.80957,1.38315,2.10938,2.36835,3.66028,2.77414.61084.15927,1.23889.23962,1.86987.23962,1.49268,0,3.70667-.44836,5.77673-2.58441,3.60291-3.71536,4.90564-10.66718,5.36133-14.48032.69946-5.85129.38452-11.8288-.84241-15.98987-.74377-2.53232-3.11072-4.30371-5.75476-4.30371h0Zm-7.3512,26.45099h0c-.00012.00009,0-.00009,0,0h0Z"/>
    </g>
  </g>
  <g>
    <path class="cls-3" d="m1364.42425,178.5532c-4.89275,5.11871-11.74261,10.23742-15.65681,17.40362"/>
    <g>
      <path d="m1348.76511,199.95649c-.66895,0-1.33203-.16992-1.91797-.49121-.93555-.51074-1.61816-1.35742-1.91895-2.38281s-.18359-2.10645.3291-3.04492c3.13379-5.73633,7.84863-10.17725,12.00879-14.0957,1.5332-1.44336,2.97656-2.80273,4.26758-4.15283.74902-.78467,1.80273-1.23584,2.89062-1.23584,1.03418,0,2.01562.39355,2.76367,1.10791.77246.73877,1.21094,1.7334,1.23535,2.80225.02441,1.06836-.37012,2.08203-1.1084,2.854-1.42383,1.49121-2.94434,2.92236-4.55273,4.43799-3.91895,3.69141-7.95996,7.49707-10.48535,12.11914-.70117,1.28418-2.04688,2.08203-3.51172,2.08203Z"/>
      <path class="cls-2" d="m1364.42404,176.55329c.49695-.00003.99475.18405,1.38208.55408.79883.76318.82715,2.0293.06348,2.82764-1.39062,1.45605-2.89453,2.87207-4.48633,4.37109-4.02246,3.78906-8.18262,7.70703-10.86133,12.60938-.36328.66504-1.04883,1.04102-1.75684,1.04102-.32422,0-.65234-.07812-.95703-.24512-.96973-.5293-1.32617-1.74414-.7959-2.71387,2.98242-5.45996,7.57617-9.78613,11.62891-13.60352,1.55273-1.46191,3.01855-2.84277,4.33789-4.22266.39246-.41125.91833-.61804,1.44507-.61804m0-4c-1.63159,0-3.21313.67676-4.33899,1.85672-1.25122,1.30862-2.67676,2.65076-4.18591,4.07166-4.27295,4.02481-9.11096,8.58191-12.39734,14.5983-.76843,1.40524-.9436,3.02719-.49243,4.56546.45117,1.53842,1.47485,2.80878,2.88232,3.577.87415.4791,1.86987.73407,2.87341.73407,2.19653,0,4.21484-1.19684,5.26721-3.12347,2.3728-4.34244,6.29578-8.03775,10.0896-11.61142,1.64062-1.5451,3.17896-2.99374,4.64038-4.52393,1.10596-1.15616,1.69641-2.67673,1.66052-4.27936-.03601-1.60287-.69421-3.09558-1.85352-4.20316-1.12183-1.07172-2.59399-1.66187-4.14526-1.66187h0Z"/>
    </g>
  </g>
  <g>
    <path class="cls-3" d="m1346.32106,250.21517s16.63536,24.56982,20.54957,24.56982"/>
    <g>
      <path d="m1366.87058,278.78461c-2.42676,0-5.22559-1.04395-14.93262-13.87109-4.63086-6.12012-8.89453-12.40332-8.93359-12.46191-.59473-.87793-.81348-1.94336-.61133-2.99316.20215-1.04883.80078-1.95703,1.68555-2.55566.66602-.4502,1.44043-.6875,2.24121-.6875,1.33008,0,2.56836.65723,3.31348,1.75781,7.98633,11.79297,15.93555,21.61523,17.9873,22.88281,1.85449.35449,3.25,2,3.25,3.92871,0,2.20605-1.79395,4-4,4Z"/>
      <path class="cls-2" d="m1346.31979,248.21497c.64124,0,1.27063.30786,1.65723.87921,7.2627,10.72461,16.56348,22.76855,19.04492,23.69629,1.03418.07715,1.84863.94043,1.84863,1.99414,0,1.10449-.89551,2-2,2-1.66504,0-4.20605-1.01074-13.33789-13.07812-4.62598-6.11328-8.82617-12.30762-8.86816-12.37012-.61914-.91406-.37988-2.1582.53516-2.77734.34412-.23254.73425-.34399,1.12012-.34406m20.55078,24.56964h.00195-.00195m.20215.02344h.00049-.00049m-20.75293-28.59308h-.00024c-1.20117.00012-2.36292.35626-3.35974,1.02997-1.32947.8996-2.22766,2.26141-2.53088,3.83575-.3031,1.57416.02502,3.17194.92383,4.4989.03088.04602,4.32166,6.37097,8.99023,12.54059,9.43665,12.47009,12.84827,14.66443,16.52759,14.66443,3.30847,0,6-2.69159,6-6,0-2.71588-1.84424-5.0575-4.37244-5.77441-2.12488-1.71997-9.31616-10.5036-17.20911-22.15894-1.11658-1.65027-2.97461-2.63629-4.96924-2.63629h0Z"/>
    </g>
  </g>
  <g>
    <path class="cls-3" d="m1308.64685,274.78499c4.89275,4.09497,3.9142,10.23742,6.84986,14.33239"/>
    <g>
      <path d="m1315.4985,293.11762c-1.28711,0-2.50293-.62402-3.25293-1.66992-1.62695-2.26855-2.31543-4.82324-2.92285-7.07812-.70996-2.63477-1.32324-4.91016-3.24414-6.51855-1.68945-1.41504-1.91406-3.94238-.49902-5.63379.76367-.91113,1.88184-1.43262,3.06836-1.43262.93555,0,1.84668.33105,2.56543.93164,3.85254,3.22559,4.9502,7.29688,5.83203,10.56738.47461,1.75879.9209,3.41406,1.70215,4.50391.62207.86816.86914,1.92676.69531,2.98047-.17285,1.05469-.74707,1.97754-1.61621,2.60059-.68262.48926-1.48828.74902-2.32812.74902Z"/>
      <path class="cls-2" d="m1308.64767,272.78504c.45276,0,.9082.15289,1.28345.46637,3.36914,2.82031,4.33301,6.39844,5.18457,9.55664.52148,1.93359,1.01367,3.75977,2.00586,5.14453.64355.89746.43848,2.14648-.45996,2.79004-.35254.25293-.75977.375-1.16309.375-.62305,0-1.23633-.29004-1.62695-.83496-1.41602-1.97363-2.02734-4.24121-2.61816-6.43359-.76465-2.83887-1.4873-5.51953-3.89062-7.53125-.84668-.70898-.95801-1.96973-.24902-2.81738.39551-.4718.96265-.71533,1.53394-.71539m.00012-4h-.00037c-1.77979.00018-3.45605.78223-4.599,2.14563-2.12488,2.54034-1.7887,6.33124.74634,8.45398,1.37097,1.14758,1.85632,2.75769,2.59631,5.50476.65198,2.41931,1.39075,5.16089,3.23047,7.72504,1.12317,1.56689,2.94678,2.50317,4.87695,2.50317,1.26062,0,2.46899-.38898,3.49487-1.12494,1.30127-.93213,2.16284-2.31781,2.42334-3.90002.26025-1.58087-.11072-3.16876-1.04456-4.47101-.56885-.79401-.96948-2.27948-1.39368-3.85211-.90637-3.36163-2.14551-7.95703-6.47986-11.58533-1.08093-.90314-2.44751-1.39917-3.85083-1.39917h0Z"/>
    </g>
  </g>
  <g>
    <path class="cls-3" d="m1194.02636,315.08987c5.8713,9.21368,13.69971,11.26117,11.74261,16.37988"/>
    <g>
      <path d="m1205.76901,335.47114c-.48926,0-.9707-.08887-1.42969-.26562-.99609-.38086-1.78613-1.12793-2.22266-2.10352-.43555-.97559-.46582-2.0625-.08398-3.06055.03223-.08203.03711-.11816.03711-.11816-.14453-.51953-2.20215-2.40918-3.08105-3.21582-2.47754-2.27539-5.55273-5.10059-8.33496-9.4668-1.18457-1.85938-.63672-4.33691,1.22168-5.52344.64648-.41016,1.38867-.62598,2.14941-.62598,1.37598,0,2.63867.69141,3.37598,1.84961,2.21777,3.48145,4.86426,5.91309,6.99121,7.86719,3.21387,2.95117,7.20605,6.61621,5.11328,12.08984-.58887,1.53906-2.08984,2.57324-3.73633,2.57324Z"/>
      <path class="cls-2" d="m1194.02463,313.09125c.66125-.00006,1.30835.32635,1.68872.92383,2.3623,3.70703,5.11914,6.23828,7.33301,8.27246,3.1875,2.92676,6.19824,5.69141,4.59082,9.89648-.30469.79688-1.06348,1.28711-1.86816,1.28711-.23828,0-.47949-.04297-.71387-.13281-1.03223-.39453-1.54883-1.55078-1.1543-2.58203.5625-1.47168-.20605-2.44336-3.55957-5.52246-2.38672-2.19238-5.35742-4.91992-8.00098-9.06836-.59375-.93164-.31934-2.16797.61133-2.76172.33289-.21149.7052-.3125,1.073-.3125m.00012-4h-.00024c-1.14099.00006-2.25366.32379-3.21765.9361-2.7948,1.78302-3.61707,5.49908-1.83972,8.2879,2.92297,4.58698,6.24048,7.63434,8.66284,9.8595.45007.41327,1.60352,1.47229,2.24402,2.16882-.23169,1.19806-.09143,2.43689.41711,3.57477.65405,1.4632,1.83875,2.58411,3.33594,3.15637.68494.26257,1.40686.39642,2.14197.39642,2.46973,0,4.72192-1.55066,5.60437-3.85858,2.57751-6.74292-2.35669-11.27344-5.6217-14.27136-2.15369-1.97888-4.58691-4.21466-6.66504-7.47571-1.10535-1.73651-2.99805-2.77423-5.06189-2.77423h0Z"/>
    </g>
  </g>
  <g>
    <path class="cls-3" d="m1250.42308,288.29098c0,3.99601,16.63536,22.42337,16.63536,22.42337"/>
    <g>
      <path d="m1267.05905,314.7143c-1.13086,0-2.21387-.48145-2.9707-1.32031-11.72168-12.98242-17.66504-21.42871-17.66504-25.10254,0-2.20605,1.79395-4,4-4,1.4707,0,2.76562.80664,3.46094,2h.29102l.15137,1.125c.04688.20898.07715.42383.08984.64258.49316,1.7959,7.23633,10.69629,15.61035,19.97559.71582.79199,1.08008,1.81641,1.02637,2.88379-.05469,1.06738-.52148,2.04883-1.31543,2.76465-.7334.66406-1.68555,1.03125-2.67871,1.03125Z"/>
      <path class="cls-2" d="m1250.42331,286.29145c1.09668,0,1.98828.88379,2,1.97754.00085.00739.00171.01489.00281.02246h-.00281.00281c.31067,2.33893,8.58411,12.73706,16.11633,21.08301.74023.81934.67578,2.08398-.14453,2.82422-.38184.3457-.86133.51562-1.33887.51562-.54688,0-1.09082-.22266-1.48535-.66016-5.15723-5.71191-17.15039-19.46289-17.15039-23.7627,0-1.10449.89551-2,2-2m2.00977,2h-.00696.00696m-2.00977-6c-3.30847,0-6,2.69159-6,6,0,1.72473,0,6.30634,18.18152,26.4433,1.13379,1.25739,2.75793,1.97955,4.45422,1.97955,1.49036,0,2.91919-.5506,4.02356-1.55042,1.18518-1.06952,1.88574-2.5426,1.96753-4.14349.08191-1.60107-.46497-3.13794-1.53967-4.32745-8.2207-9.10895-14.20422-17.0918-15.13269-19.14117-.01953-.15668-.04504-.31104-.07642-.46387l-.37146-2.79645h-1.0448c-1.10144-1.22607-2.69714-2-4.46179-2h0Z"/>
    </g>
  </g>
  <g>
    <path class="cls-3" d="m1152.1042,319.497c-1.9571,6.09297-5.8713,11.21169,0,18.37788"/>
    <g>
      <path d="m1152.10495,341.87446c-1.2041,0-2.33105-.53418-3.09473-1.46484-6.29297-7.67969-3.70605-14.30273-1.81738-19.13867.39062-.99805.78809-2.0166,1.10254-2.99707.53418-1.66211,2.06348-2.7793,3.80566-2.7793.41699,0,.83105.06543,1.23047.19531,1.0127.3252,1.8418,1.02832,2.33008,1.97852s.57812,2.03418.25098,3.05078c-.39453,1.22656-.83887,2.36328-1.26855,3.46289-1.78711,4.57715-2.77148,7.09863.55371,11.15723,1.39844,1.70605,1.14746,4.23145-.55859,5.62891-.71387.58496-1.61328.90625-2.53418.90625Z"/>
      <path class="cls-2" d="m1152.10104,317.49476c.20337,0,.41016.03137.61426.09747,1.05176.33789,1.63086,1.46387,1.29297,2.51562-.37305,1.16113-.80664,2.27148-1.22656,3.3457-1.85645,4.75391-3.19824,8.18945.86914,13.15332.7002.85449.5752,2.11426-.2793,2.81445-.37207.30469-.82031.45312-1.2666.45312-.57812,0-1.15234-.25-1.54785-.73242-5.55078-6.77441-3.39941-12.2832-1.50098-17.14355.39746-1.01758.80859-2.06934,1.14355-3.11328.27234-.84784,1.05627-1.39038,1.90137-1.39044m0-4h-.00012c-2.61438.00012-4.90894,1.67474-5.70959,4.16699-.29602.92273-.68225,1.91144-1.05566,2.86768-1.95728,5.01093-4.90698,12.56268,2.12744,21.14777,1.14502,1.39673,2.83667,2.19727,4.64185,2.19727,1.38135,0,2.7312-.48242,3.8009-1.35834,1.24072-1.01672,2.0105-2.45441,2.16882-4.04919.1582-1.59467-.31409-3.15564-1.32996-4.39532-2.58386-3.15338-1.99255-4.6676-.23718-9.16254.4198-1.07404.896-2.2923,1.30896-3.5777,1.01196-3.14972-.72766-6.53546-3.87769-7.54742-.58984-.19098-1.21106-.28918-1.83777-.28918h0Z"/>
    </g>
  </g>
  <g>
    <path class="cls-3" d="m1105.10829,321.92663c-.97855,8.14046,4.89275,23.49659,0,26.56782"/>
    <g>
      <path d="m1105.10983,352.49457c-1.38574,0-2.65332-.7002-3.38965-1.87207-1.1416-1.81934-.63477-4.21289,1.11523-5.41992.74316-1.4668-.28516-8.05859-.72754-10.90137-.7002-4.47949-1.42188-9.10352-.9707-12.85254.24121-2.00781,1.94531-3.52246,3.96387-3.52246.16211,0,.3252.00977.48926.0293,1.05566.12695,2.00293.66016,2.66309,1.5s.95312,1.88672.8252,2.94727c-.31738,2.65332.31738,6.72266.93164,10.6582,1.24805,8,2.42773,15.55566-2.77539,18.82227-.64062.40039-1.375.61133-2.125.61133Z"/>
      <path class="cls-2" d="m1105.10141,319.92579c.08081,0,.16248.00494.24475.01508,1.09668.13184,1.87891,1.12695,1.74707,2.22363-.35059,2.92383.30566,7.13379.94141,11.20508,1.14355,7.33008,2.22363,14.25391-1.86328,16.81934-.33105.20703-.69824.30566-1.06152.30566-.66504,0-1.31641-.33203-1.69629-.93652-.58691-.93555-.30469-2.16992.63086-2.75781,1.85547-1.16406.80469-7.89746.03809-12.81445-.67773-4.33887-1.37793-8.82617-.95996-12.29785.12195-1.01514.98474-1.76215,1.97888-1.76215m0-4c-3.0304,0-5.5885,2.27216-5.95032,5.28516-.48425,4.02216.25977,8.78558.97937,13.39215.3623,2.32379,1.17236,7.52032.91675,9.47375-2.08899,1.92004-2.5813,5.12146-1.02209,7.60693,1.10669,1.76105,3.00696,2.81079,5.08472,2.81079,1.12549,0,2.22595-.3161,3.18237-.91418,6.32446-3.97003,4.98755-12.53979,3.69458-20.82739-.56592-3.62469-1.2074-7.73236-.922-10.1123.19116-1.59033-.2489-3.16095-1.23926-4.42126-.98987-1.2597-2.41113-2.05872-4.00195-2.25-.23132-.0285-.47815-.04364-.72217-.04364h0Z"/>
    </g>
  </g>
  <g>
    <path class="cls-3" d="m1075.5524,321.51227c-1.9571,11.26117-14.30328,22.52233-10.57657,23.54608"/>
    <g>
      <path d="m1064.97702,349.05903c-.3584,0-.71582-.04883-1.0625-.14453-1.56055-.42969-2.77051-1.51074-3.31738-2.96777-1.11914-2.97363.70801-5.74023,3.73535-10.32422,2.69629-4.08496,6.38965-9.67773,7.27832-14.79492.33496-1.9209,1.99414-3.31445,3.94434-3.31445.2207,0,.44531.01758.6709.05566,2.18359.38086,3.64355,2.45508,3.26758,4.62695-1.17578,6.76367-5.40039,13.16211-8.48535,17.83398-.74609,1.12891-1.69922,2.57324-2.29102,3.60449.29883.7793.3457,1.64355.11621,2.48242-.47559,1.73047-2.06055,2.94043-3.85449,2.94238h-.00195Z"/>
      <path class="cls-2" d="m1075.55527,319.51301c.11194,0,.22546.00928.33972.02844,1.08789.18945,1.81641,1.22461,1.62793,2.31348-1.10352,6.34961-5.19531,12.54688-8.18359,17.07227-1.1084,1.67871-2.44238,3.7002-2.90137,4.76562.45801.49121.65723,1.2002.4668,1.89453-.24414.88867-1.0498,1.4707-1.92773,1.47168-.1748,0-.35352-.02344-.53027-.07227-.95117-.26172-1.65332-.87988-1.97754-1.74316-.75977-2.01953.76465-4.32812,3.53223-8.51953,2.79395-4.23145,6.62012-10.02734,7.58008-15.55469.16968-.97345,1.01306-1.65631,1.97375-1.65637m0-4h-.00012c-2.92505.00012-5.41235,2.09009-5.91418,4.96948-.81775,4.70856-4.37805,10.10052-6.97754,14.03754-3.14441,4.76221-5.41626,8.20276-3.93799,12.13202.77405,2.0611,2.4729,3.58954,4.66016,4.19141.51648.1427,1.05322.21558,1.59143.21558,2.69507-.00299,5.07202-1.81732,5.78479-4.41205.24915-.9082.28113-1.83643.11157-2.72241.57312-.92914,1.31799-2.05743,1.80396-2.7934,3.18188-4.8186,7.53992-11.41821,8.7865-18.59137.56433-3.26031-1.62622-6.37195-4.88257-6.93903-.35522-.05963-.69202-.08777-1.026-.08777h0Z"/>
    </g>
  </g>
  <g>
    <path class="cls-3" d="m1041.10696,321.56952c-2.93565-.09896-7.82841,12.18595-11.74261,14.23343"/>
    <g>
      <path d="m1029.36667,339.80317c-1.49512,0-2.85449-.82227-3.54688-2.14648-1.02148-1.9541-.26367-4.375,1.69043-5.39746.9541-.52246,3.34473-4.33496,4.49316-6.16699,2.9873-4.7666,5.34277-8.52344,9.06152-8.52344l.16406.00293c2.21777.07617,3.9502,1.92969,3.87598,4.13281-.06152,1.80859-1.31055,3.3125-3.00684,3.74219-.76172.81641-2.58984,3.73438-3.31055,4.88379-2.4248,3.86914-4.71582,7.52344-7.56836,9.0166-.57324.29883-1.21191.45605-1.85254.45605Z"/>
      <path class="cls-2" d="m1041.06491,319.56879c.03711,0,.07324.00098.10938.00195,1.10449.03809,1.96875.96289,1.93164,2.06641-.03516,1.03223-.8457,1.85449-1.85156,1.92773-.91797.53027-2.86328,3.63281-4.16113,5.7041-2.27734,3.63281-4.42871,7.06445-6.80176,8.30664-.2959.1543-.6123.22754-.9248.22754-.7207,0-1.41699-.38965-1.77441-1.07324-.51172-.97852-.13379-2.18652.8457-2.69922,1.41309-.73926,3.54883-4.14746,5.26562-6.88574,2.75098-4.38867,4.74902-7.57617,7.36133-7.57617m-.02539,4h.00195-.00195m.02539-8c-4.82581,0-7.57141,4.38007-10.75049,9.45172-.98401,1.5694-2.99951,4.78412-3.88306,5.54852-2.81799,1.5788-3.8894,5.13525-2.38367,8.01453,1.03821,1.98584,3.07642,3.2196,5.31897,3.2196.96082,0,1.92017-.23541,2.77429-.68079,3.33789-1.74725,5.76831-5.62421,8.34143-9.72882.58655-.93616,2.00146-3.19421,2.81348-4.23358,2.18091-.85034,3.72412-2.93091,3.80774-5.38666.11121-3.3056-2.48694-6.08624-5.7915-6.2002-.10168-.00287-.17346-.00433-.24719-.00433h0Zm-14.68469,15.04272h0c-.00012,0,0-.00006,0,0h0Z"/>
    </g>
  </g>
  <g>
    <path class="cls-3" d="m1002.59641,306.97678c-6.84986,10.23742-14.67826,23.54608-18.59247,21.49859"/>
    <g>
      <path d="m984.90964,332.71332c-.9502,0-1.87891-.2334-2.75879-.69336-1.95508-1.02344-2.71289-3.44434-1.69141-5.39844.69434-1.32422,2.05273-2.14648,3.54785-2.14648.3125,0,.625.03809.92871.11035,2.41797-1.6582,9.0625-11.80957,11.30957-15.24316,1.02832-1.57129,2.03809-3.1123,3.02637-4.58984.74512-1.1123,1.98828-1.77539,3.32617-1.77539.79199,0,1.56055.2334,2.2207.6748.88965.59473,1.49316,1.5,1.70117,2.54785.20703,1.04785-.00586,2.11426-.59961,3.00195-.97363,1.45508-1.9668,2.97266-2.96582,4.49902-7.72168,11.79688-12.71582,19.0127-18.04492,19.0127Z"/>
      <path class="cls-2" d="m1002.59775,304.97712c.38208,0,.76855.10931,1.11072.33777.91797.61426,1.16406,1.85645.5498,2.77441-.98242,1.46777-1.98438,2.99902-2.99219,4.53906-7.15918,10.9375-12.08301,18.08496-16.35645,18.08496-.62305,0-1.23242-.15234-1.83203-.46582-.97949-.5127-1.35742-1.7207-.8457-2.69922.35779-.68286,1.0542-1.07281,1.77502-1.07281.31201,0,.62854.07312.92419.22711.01172.00098.02344.00098.03516.00098,2.30566,0,9.22656-10.57227,12.95312-16.26562,1.01562-1.55176,2.02539-3.09473,3.01465-4.57324.38574-.57593,1.01843-.88757,1.6637-.88757m0-4h-.00012c-2.00635,0-3.87061.99493-4.98682,2.66144-.99377,1.48517-2.00684,3.03296-3.02576,4.58978-1.99414,3.04651-7.68872,11.74677-10.28259,14.25458-.09839-.00494-.19702-.00745-.29553-.00745-2.24084,0-4.27869,1.23248-5.31812,3.21637-1.53406,2.93341-.39673,6.56555,2.53381,8.09955,1.17078.61206,2.41064.92194,3.68701.92194,6.37109,0,11.38672-7.1886,19.70325-19.89429,1.00964-1.54297,1.99915-3.05511,2.96948-4.50482,1.84021-2.75,1.10022-6.48383-1.64941-8.32373-.99402-.6637-2.14612-1.01337-3.33521-1.01337h0Z"/>
    </g>
  </g>
  <g>
    <path class="cls-3" d="m954.24387,289.62926s0,7.1662-5.02142,14.33239"/>
    <g>
      <path d="m949.22018,307.96137c-.82617,0-1.62012-.25098-2.2959-.72656-.87207-.61035-1.45703-1.52734-1.6416-2.58008s.05078-2.11426.66406-2.98828c4.15234-5.92578,4.2959-12.00391,4.29688-12.06445.01367-2.18457,1.80762-3.96973,4-3.96973,2.21094.00586,4,1.79883,4,3.99707,0,.34375-.06543,8.52148-5.74609,16.62695-.74609,1.06738-1.97168,1.70508-3.27734,1.70508Z"/>
      <path class="cls-2" d="m954.24948,287.63227c1.10254.00293,1.99414.89453,1.99414,1.99707,0,.31836-.06152,7.88477-5.38379,15.47949-.38867.55566-1.00879.85254-1.63965.85254-.39648,0-.79688-.11719-1.14551-.3623-.90527-.63379-1.12402-1.88086-.49023-2.78516,4.56738-6.51855,4.65918-13.12402,4.65918-13.19043.00684-1.10059.90039-1.99121,2-1.99121h.00586m.00525-4h-.01111c-3.28796,0-5.97949,2.67651-5.99988,5.96637-.00085.01935-.17017,5.54657-3.93518,10.91992-.91956,1.31195-1.27319,2.90387-.99573,4.48206.27771,1.57928,1.15405,2.95551,2.46777,3.87524,1.00781.70856,2.19946,1.08551,3.43958,1.08551,1.95789,0,3.79614-.95697,4.91736-2.55981,5.93469-8.46863,6.10608-16.84497,6.10608-17.77222,0-3.29803-2.6842-5.98828-5.98352-5.99707h-.00537Z"/>
    </g>
  </g>
  <g>
    <path class="cls-9" d="m920.16219,265.05944c-5.8713,6.14245-18.59247,16.37988-19.57102,19.45111"/>
    <g>
      <path d="m900.58347,288.47407c-.42773,0-.85059-.06934-1.25879-.20605-2.09277-.71094-3.20703-2.89355-2.54395-4.97266.89258-2.80176,4.76465-6.41406,12.10352-13.08594,3.07715-2.79688,6.25879-5.68848,8.3877-7.91406.74902-.78516,1.80371-1.23633,2.89062-1.23633,1.03516,0,2.0166.39453,2.76465,1.11035.77148.73633,1.20996,1.73047,1.23438,2.7998.02441,1.06836-.37012,2.08203-1.10938,2.85449-2.31445,2.42188-5.60449,5.41309-8.78613,8.30469-2.76172,2.50977-9.21777,8.37891-9.91797,9.74219-.54785,1.5293-2.07227,2.60352-3.76465,2.60352Z"/>
      <path class="cls-2" d="m920.16269,263.05903c.49695-.00006.99451.18402,1.38171.55469.79883.7627.82715,2.0293.06348,2.82715-2.26758,2.37207-5.53125,5.33887-8.6875,8.20801-3.93848,3.58008-9.89062,8.99023-10.4248,10.47363-.2959.82031-1.08105,1.35156-1.91211,1.35156-.20703,0-.41699-.0332-.62402-.10254-1.03223-.35059-1.60449-1.42969-1.27344-2.46875.73438-2.30469,4.86523-6.14258,11.54395-12.21387,3.10547-2.82227,6.31641-5.74121,8.4873-8.01172.39246-.41113.91858-.61816,1.44543-.61816m.00012-4h-.00012c-1.63123.00006-3.21252.67651-4.3385,1.85596-2.07812,2.1734-5.23328,5.04077-8.28442,7.81372-7.81238,7.10181-11.61414,10.66174-12.66492,13.95966-.99646,3.12744.67188,6.40887,3.79822,7.4707.62939.21082,1.26685.315,1.9104.315,2.42395,0,4.61719-1.47058,5.55627-3.69159,1.11438-1.57733,6.94604-6.8783,9.46716-9.17004,3.2113-2.91925,6.52783-5.93402,8.89233-8.40753,1.10718-1.15662,1.69788-2.67767,1.66187-4.28101-.03613-1.60327-.6947-3.09601-1.85449-4.20331-1.11804-1.07025-2.59106-1.66156-4.1438-1.66156h0Z"/>
    </g>
  </g>
  <g>
    <path class="cls-3" d="m893.68298,219.06938c-13.69971-10.19581-14.67826-22.48072-19.57102-27.59943"/>
    <g>
      <path d="m893.68112,223.06977c-.86328,0-1.6875-.27246-2.38379-.78906-9.77148-7.27246-13.62988-15.5625-16.44824-21.61523-1.28516-2.75879-2.39258-5.1377-3.62891-6.43164-.7373-.77148-1.13184-1.78516-1.10742-2.85352.02441-1.06934.46289-2.06348,1.23633-2.80176.74609-.71484,1.72852-1.10938,2.7627-1.10938,1.08789,0,2.1416.45215,2.89258,1.23926,2.15039,2.24805,3.51562,5.18359,5.09766,8.58203,2.59473,5.57324,5.82324,12.50781,13.96973,18.57031,1.76855,1.31641,2.13672,3.82715.82129,5.59668-.75195,1.00977-1.95215,1.6123-3.21191,1.6123Z"/>
      <path class="cls-2" d="m874.11203,189.4694c.52686-.00003,1.05249.20724,1.44507.61893,1.92188,2.00977,3.22461,4.80762,4.73145,8.0459,2.68945,5.77637,6.03711,12.9668,14.58887,19.33105.88574.65918,1.06934,1.91211.41016,2.79883-.39258.52734-.99512.80566-1.60645.80566-.41504,0-.83301-.12891-1.19238-.39551-9.36328-6.96875-13.09863-14.99316-15.82617-20.85254-1.3584-2.91699-2.53125-5.43652-3.99609-6.96973-.76367-.79785-.73535-2.06445.06348-2.82715.3877-.37109.88538-.55542,1.38208-.55545m.00012-3.99997h-.00012c-1.55273.00006-3.02588.59167-4.14807,1.66583-1.15601,1.10376-1.81458,2.59653-1.85071,4.19974-.03601,1.60336.55469,3.12436,1.66357,4.28284,1.00586,1.05286,2.09949,3.40115,3.2572,5.8873,2.74573,5.8985,6.89185,14.80536,17.06653,22.37793,1.0481.77759,2.28455,1.18671,3.58057,1.18671,1.88831,0,3.68823-.90356,4.81494-2.41711,1.97485-2.65656,1.42212-6.42212-1.23059-8.39627-7.74011-5.76031-10.7207-12.16193-13.35046-17.80994-1.58728-3.41122-3.08667-6.63348-5.46692-9.12265-1.12244-1.177-2.70422-1.85437-4.33594-1.85437h0Z"/>
    </g>
  </g>
  <ellipse class="cls-5" cx="1125.85086" cy="203.16463" rx="89.5374" ry="82.01666"/>
  <ellipse class="cls-6" cx="1138.19554" cy="212.16607" rx="89.5374" ry="82.01666"/>
  <ellipse class="cls-8" cx="1130.14288" cy="201.81801" rx="11.98725" ry="10.34806"/>
</svg>